# xmcd
#
# Track frame offsets:
#	150
#	14497
#	32727
#	44477
#	70490
#	90772
#	109837
#	125742
#	147230
#	166267
#	179960
#	204235
#
# Disc length: 2947 seconds
# Revision: 4
# Processed by: cddbd v1.5.2PL0 Copyright (c) Steve Scherf et al.
# Submitted via: dBpowerAMP V12.0
#
DISCID=ac0b810c
DTITLE=Various Artist - Step Right Up
DYEAR=2001
DGENRE=Country
TTITLE0=Charlie Robison - Right Man for the Job
TTITLE1=Charlie Robison - The Preacher
TTITLE2=Charlie Robison - I Want You Bad
TTITLE3=Charlie Robison - Desperate Times
TTITLE4=Charlie Robison with Natalie Maines - The Wedding Song
TTITLE5=Charlie Robison - Sweet Inspiration
TTITLE6=Charlie Robison - John O'Reilly
TTITLE7=Charlie Robison - Tonight
TTITLE8=Charlie Robison - One in a Million
TTITLE9=Charlie Robison - It Comes to Me Naturally
TTITLE10=Charlie Robison - Rain
TTITLE11=Charlie Robison - Life of the Party
EXTD=
EXTT0=
EXTT1=
EXTT2=
EXTT3=
EXTT4=
EXTT5=
EXTT6=
EXTT7=
EXTT8=
EXTT9=
EXTT10=
EXTT11=
PLAYORDER=
